<svg width="33" height="25" viewBox="0 0 33 25" fill="none" xmlns="http://www.w3.org/2000/svg">
<path d="M3.19701 11.8699L1.92861 15.1531L4.99091 13.4181C5.79994 12.9597 6.71325 12.7172 7.64307 12.7137H7.67195H7.70251L7.73303 12.7122C8.45166 12.6772 9.16989 12.7886 9.84419 13.0396C10.5185 13.2905 11.1348 13.6758 11.6557 14.172C12.1767 14.6683 12.5914 15.2651 12.8748 15.9264C13.1582 16.5878 13.3043 17.2997 13.3043 18.0192C13.3043 18.7387 13.1582 19.4507 12.8748 20.112C12.5914 20.7733 12.1767 21.3702 11.6557 21.8664C11.1348 22.3627 10.5185 22.7479 9.84419 22.9989C9.16989 23.2498 8.45166 23.3612 7.73303 23.3263L7.70798 23.325L7.68289 23.3248C6.85942 23.3177 6.04782 23.1277 5.3067 22.7687L5.28159 22.7565L5.25597 22.7455C4.07614 22.2372 3.06983 21.3964 2.35991 20.3258C1.65079 19.2563 1.26803 18.0037 1.25822 16.7206C1.26016 12.8138 3.81678 6.18794 9.75178 1.36576L9.7518 1.36578L9.75822 1.36049C9.80367 1.32306 9.85606 1.29494 9.91238 1.27775C9.9687 1.26056 10.0279 1.25464 10.0865 1.26031C10.1451 1.26598 10.202 1.28314 10.254 1.31081C10.306 1.33848 10.352 1.37612 10.3894 1.42158C10.4269 1.46703 10.455 1.51942 10.4722 1.57574C10.4894 1.63206 10.4953 1.69122 10.4896 1.74983C10.4839 1.80844 10.4668 1.86536 10.4391 1.91734C10.4118 1.96857 10.3749 2.014 10.3303 2.05114C7.13859 4.64748 4.67977 8.03196 3.19701 11.8699Z" fill="#9BB0FA" stroke="#9BB0FA" stroke-width="2.51644"/>
<path d="M25.2062 12.7775L26.1461 12.7755C26.5653 12.825 26.9781 12.9245 27.3757 13.0724C28.05 13.3234 28.6663 13.7086 29.1873 14.2049C29.7082 14.7011 30.123 15.298 30.4063 15.9593C30.6897 16.6206 30.8358 17.3326 30.8358 18.0521C30.8358 18.7716 30.6897 19.4835 30.4063 20.1449C30.123 20.8062 29.7082 21.403 29.1873 21.8993C28.6663 22.3955 28.05 22.7808 27.3757 23.0317C26.7014 23.2827 25.9832 23.3941 25.2646 23.3591L25.2313 23.3575L25.198 23.3577C24.3544 23.3613 23.5212 23.1713 22.7624 22.8024L22.745 22.7939L22.7274 22.786C21.5686 22.266 20.5841 21.4234 19.8913 20.3589C19.1991 19.2952 18.8275 18.0549 18.8208 16.7858C18.8221 12.8792 21.3786 6.25237 27.3143 1.42962L27.3455 1.40425L27.3751 1.37693C27.4198 1.33555 27.4726 1.30377 27.5301 1.28355C27.5876 1.26332 27.6486 1.25507 27.7094 1.2593C27.7702 1.26354 27.8295 1.28017 27.8836 1.30818C27.9377 1.33618 27.9855 1.37497 28.0241 1.42215C28.0627 1.46933 28.0912 1.5239 28.1079 1.58252C28.1246 1.64113 28.1291 1.70253 28.1212 1.76296C28.1133 1.82339 28.0931 1.88155 28.0618 1.93388C28.0306 1.9862 27.9889 2.03158 27.9395 2.06721L27.9086 2.08948L27.8791 2.11358C24.6954 4.71494 22.2421 8.09879 20.7596 11.9336L19.4876 15.2239L22.5548 13.4812C23.3631 13.0219 24.2765 12.7795 25.2062 12.7775Z" fill="#9BB0FA" stroke="#9BB0FA" stroke-width="2.51644"/>
</svg>
